# xmcd
# 
# Track frame offsets:
#     150
#     24605
#     49122
#     73452
#     101360
#     122048
#     145362
#     170974
#     205247
# 
# Disc length: 3040
# 
# Revision: 1
# Processed by: cddbd v1.5.2PL0 Copyright (c) Steve Scherf et al.
# Submitted via: BonkEnc v1.0.6
# 
DISCID=8c0bde09
DTITLE=小林香織 - FINE
DYEAR=2006
DGENRE=Jazz
TTITLE0=KIRA-KIRA
TTITLE1=ENERGY
TTITLE2=FREE
TTITLE3=LOVELY BLOSSOM
TTITLE4=DRIVING
TTITLE5=GRACE
TTITLE6=SLEEP ON IT
TTITLE7=MOMENT OF LONELINESS
TTITLE8=WHAT'S GOING ON
EXTD=YEAR: 2006
EXTT0=
EXTT1=
EXTT2=
EXTT3=
EXTT4=
EXTT5=
EXTT6=
EXTT7=
EXTT8=
PLAYORDER=
